<svg aria-hidden="true"
     style="position: absolute; width: 0; height: 0; overflow: hidden;"
     version="1.1"
     xmlns="http://www.w3.org/2000/svg"
     xmlns:xlink="http://www.w3.org/1999/xlink">
  <defs>
    <symbol id="cross" viewBox="0 0 32 32">
      <path d="M31.708 25.708c-0-0-0-0-0-0l-9.708-9.708 9.708-9.708c0-0 0-0 0-0 0.105-0.105 0.18-0.227 0.229-0.357 0.133-0.356 0.057-0.771-0.229-1.057l-4.586-4.586c-0.286-0.286-0.702-0.361-1.057-0.229-0.13 0.048-0.252 0.124-0.357 0.228 0 0-0 0-0 0l-9.708 9.708-9.708-9.708c-0-0-0-0-0-0-0.105-0.104-0.227-0.18-0.357-0.228-0.356-0.133-0.771-0.057-1.057 0.229l-4.586 4.586c-0.286 0.286-0.361 0.702-0.229 1.057 0.049 0.13 0.124 0.252 0.229 0.357 0 0 0 0 0 0l9.708 9.708-9.708 9.708c-0 0-0 0-0 0-0.104 0.105-0.18 0.227-0.229 0.357-0.133 0.355-0.057 0.771 0.229 1.057l4.586 4.586c0.286 0.286 0.702 0.361 1.057 0.229 0.13-0.049 0.252-0.124 0.357-0.229 0-0 0-0 0-0l9.708-9.708 9.708 9.708c0 0 0 0 0 0 0.105 0.105 0.227 0.18 0.357 0.229 0.356 0.133 0.771 0.057 1.057-0.229l4.586-4.586c0.286-0.286 0.362-0.702 0.229-1.057-0.049-0.13-0.124-0.252-0.229-0.357z"></path>
    </symbol>
    <symbol id="plus" viewBox="0 0 32 32">
      <path d="M31 12h-11v-11c0-0.552-0.448-1-1-1h-6c-0.552 0-1 0.448-1 1v11h-11c-0.552 0-1 0.448-1 1v6c0 0.552 0.448 1 1 1h11v11c0 0.552 0.448 1 1 1h6c0.552 0 1-0.448 1-1v-11h11c0.552 0 1-0.448 1-1v-6c0-0.552-0.448-1-1-1z"></path>
    </symbol>
      <symbol id="download" viewBox="0 0 32 32">
          <path d="M23 14l-8 8-8-8h5v-12h6v12zM15 22h-15v8h30v-8h-15zM28 26h-4v-2h4v2z" />
      </symbol>
      <symbol id="edit" viewBox="0 0 32 32">
          <path d="M27 0c2.761 0 5 2.239 5 5 0 1.126-0.372 2.164-1 3l-2 2-7-7 2-2c0.836-0.628 1.874-1 3-1zM2 23l-2 9 9-2 18.5-18.5-7-7-18.5 18.5zM22.362 11.362l-14 14-1.724-1.724 14-14 1.724 1.724z"/>
      </symbol>
      <symbol id="rings" viewBox="0 0 32 32">
        <path fill="#ecc9c7" style="fill: var(--color1, #ecc9c7)" d="M9.333 24.788c-1.533 0-2.974-0.597-4.058-1.681-0.34-0.34-0.34-0.892 0-1.233s0.892-0.34 1.233 0c0.755 0.755 1.758 1.17 2.825 1.17 2.203 0 3.996-1.793 3.996-3.996s-1.793-3.996-3.996-3.996-3.996 1.793-3.996 3.996c0 0.481-0.39 0.872-0.872 0.872s-0.872-0.39-0.872-0.872c0-3.165 2.575-5.739 5.739-5.739s5.739 2.575 5.739 5.739-2.575 5.739-5.739 5.739z"></path>
        <path fill="#ecc9c7" style="fill: var(--color1, #ecc9c7)" d="M22.667 28.382c-2.493 0-4.837-0.971-6.599-2.733-0.34-0.34-0.34-0.892 0-1.233s0.892-0.34 1.233 0c1.433 1.433 3.34 2.223 5.367 2.223 4.185 0 7.59-3.405 7.59-7.59s-3.405-7.59-7.59-7.59-7.59 3.405-7.59 7.59c0 0.481-0.39 0.872-0.871 0.872s-0.871-0.39-0.871-0.872c0-5.146 4.187-9.333 9.333-9.333s9.333 4.187 9.333 9.333-4.187 9.333-9.333 9.333z"></path>
        <path fill="#ecc9c7" style="fill: var(--color1, #ecc9c7)" d="M9.333 28.382c-5.146 0-9.333-4.187-9.333-9.333s4.187-9.333 9.333-9.333c2.493 0 4.837 0.971 6.599 2.733 0.34 0.34 0.34 0.892 0 1.232s-0.892 0.34-1.232 0c-1.434-1.434-3.34-2.223-5.367-2.223-4.185 0-7.59 3.405-7.59 7.59s3.405 7.59 7.59 7.59 7.59-3.405 7.59-7.59c0-0.481 0.39-0.872 0.872-0.872s0.872 0.39 0.872 0.872c0 5.146-4.187 9.333-9.333 9.333z"></path>
        <path fill="#ecc9c7" style="fill: var(--color1, #ecc9c7)" d="M22.667 24.788c-3.165 0-5.739-2.575-5.739-5.739s2.574-5.739 5.739-5.739c1.533 0 2.974 0.597 4.058 1.681 0.34 0.34 0.34 0.892 0 1.233s-0.892 0.34-1.233 0c-0.755-0.755-1.758-1.17-2.825-1.17-2.203 0-3.996 1.793-3.996 3.996s1.793 3.996 3.996 3.996 3.996-1.793 3.996-3.996c0-0.481 0.39-0.872 0.872-0.872s0.872 0.39 0.872 0.872c0 3.164-2.575 5.739-5.739 5.739z"></path>
        <path fill="#c2c2b4" style="fill: var(--color2, #c2c2b4)" d="M11.582 4.49c-0.845 0-1.611 0.347-2.166 0.908-0.556-0.561-1.321-0.908-2.166-0.908-1.695 0-3.068 1.393-3.068 3.111 0 0.229 0.026 0.463 0.074 0.698 0.453 2.216 2.917 4.654 5.16 5.708 2.243-1.054 4.707-3.492 5.16-5.708 0.048-0.235 0.074-0.469 0.074-0.698-0-1.718-1.374-3.111-3.068-3.111z"></path>
        <path fill="#ecc9c7" style="fill: var(--color1, #ecc9c7)" d="M9.416 14.878c-0.127 0-0.253-0.028-0.371-0.083-2.333-1.097-5.104-3.685-5.644-6.322-0.061-0.298-0.092-0.592-0.092-0.872 0-2.196 1.767-3.983 3.94-3.983 0.781 0 1.528 0.229 2.166 0.655 0.638-0.426 1.385-0.655 2.166-0.655 2.172 0 3.94 1.787 3.94 3.983 0 0.281-0.031 0.574-0.091 0.872-0.539 2.637-3.31 5.226-5.644 6.322-0.117 0.055-0.244 0.083-0.371 0.083zM7.25 5.362c-1.211 0-2.197 1.005-2.197 2.24 0 0.164 0.019 0.34 0.056 0.524 0.379 1.853 2.455 3.906 4.306 4.906 1.851-1 3.928-3.053 4.307-4.906 0.037-0.183 0.056-0.359 0.056-0.523 0-1.235-0.986-2.24-2.197-2.24-0.582 0-1.132 0.231-1.547 0.65-0.164 0.165-0.386 0.258-0.619 0.258v0c-0.232 0-0.455-0.093-0.619-0.258-0.415-0.419-0.965-0.65-1.547-0.65z"></path>
      </symbol>
  </dfs>
</svg>