<svg width="16" height="16" viewBox="0 0 16 16" fill="none" xmlns="http://www.w3.org/2000/svg">
<path d="M15.5664 2.88688L13.1131 0.43356C12.5351 -0.144473 11.5995 -0.144567 11.0214 0.43356C10.6099 0.845092 1.56394 9.89115 1.39141 10.0636C1.32322 10.1318 1.275 10.2173 1.25204 10.311L0.0156918 15.3459C-0.0791832 15.7324 0.271504 16.0784 0.654161 15.9844C0.915442 15.9203 5.45785 14.8048 5.68907 14.748C5.78269 14.7251 5.86826 14.6768 5.93641 14.6087C6.11816 14.4269 15.1138 5.43123 15.5664 4.9786C16.1444 4.40057 16.1446 3.46497 15.5664 2.88688ZM1.24866 14.7514L1.29904 14.5463L1.45375 14.701L1.24866 14.7514ZM2.65232 14.4067L1.59335 13.3478L2.05385 11.4725L4.5276 13.9462L2.65232 14.4067ZM5.56319 13.489L2.51107 10.4369L10.3925 2.55541L13.4446 5.60754L5.56319 13.489ZM14.82 4.23216L14.2104 4.84176L11.1583 1.78963L11.7679 1.18003C11.9333 1.01462 12.2012 1.01447 12.3667 1.18003L14.82 3.63338C14.9855 3.79885 14.9855 4.06663 14.82 4.23216Z" fill="#E84419"/>
</svg>
